# xmcd
#
# Track frame offsets:
#	182
#	16782
#	33335
#	61790
#	83382
#	103217
#	119227
#	140117
#	161035
#	181405
#
# Disc length: 2588 seconds
#
# Revision: 0
# Processed by: cddbd v1.5.2PL0 Copyright (c) Steve Scherf et al.
# Submitted via: dBpowerAMP V4.0
#
DISCID=820a1a0a
DTITLE=Luong Tung Quang - Quay Ve Ben Mo
DYEAR=1998
DGENRE=VietPOP
TTITLE0=Quay Ve Ben Mo
TTITLE1=Giac Mo Sa Mac
TTITLE2=Hay Yeu Nhau
TTITLE3=Cuoc Tinh Dat Mat
TTITLE4=Gio Qua Xa Nguoi Oi
TTITLE5=Thuong Nhau Mua He, Khoc Nhau Mua Dong
TTITLE6=Neu Vang Em (Without You)
TTITLE7=Nu Hon Duoi Mua
TTITLE8=Thuyen Tinh Tren Song
TTITLE9=That Tinh
EXTD=
EXTT0=
EXTT1=
EXTT2=
EXTT3=
EXTT4=
EXTT5=
EXTT6=
EXTT7=
EXTT8=
EXTT9=
PLAYORDER=
